<svg xmlns="http://www.w3.org/2000/svg" width="17" height="15"><g fill="none" fill-rule="evenodd"><path fill="#333" fill-rule="nonzero" d="M5.345 3.859c.188 0 .33.086.424.257l1.98 4.25c.093.215-.048.473-.284.559-.094.043-.141.043-.188.043a.456.456 0 0 1-.424-.258L6.38 7.68H4.402l-.471 1.03c-.094.258-.377.344-.613.258-.283-.086-.377-.344-.283-.558L4.92 4.116c.048-.171.236-.257.425-.257Zm0 1.588-.613 1.417h1.225l-.612-1.417Zm3.77.988c.283 0 .471-.172.471-.43v-.858h.943c.282 0 .471-.172.471-.43 0-.257-.189-.429-.471-.429h-.943v-.859c0-.257-.188-.429-.471-.429s-.471.172-.471.43v.858H7.7c-.283 0-.471.172-.471.43 0 .257.188.429.471.429h.943v.858c0 .258.188.43.47.43Z"/><path stroke="#333" stroke-width="1.4" d="M13 11.435V14H1V1h12m-3.885 9.219L16.334 3"/></g></svg>