<svg xmlns="http://www.w3.org/2000/svg" width="16" height="16"><path fill="#333" d="M12.59 9.757H3.41a2.858 2.858 0 0 0-2.85 2.85 2.858 2.858 0 0 0 2.85 2.849h9.179a2.858 2.858 0 0 0 2.85-2.85 2.856 2.856 0 0 0-2.849-2.85Zm0 4.499H7.558c.514-.37.85-.973.85-1.648 0-.675-.336-1.278-.85-1.648h5.032c.91 0 1.648.74 1.648 1.648a1.65 1.65 0 0 1-1.648 1.648ZM4.304 9.16a.598.598 0 0 0 .426-.176l7.416-7.416a.603.603 0 0 0 0-.85.603.603 0 0 0-.85 0L3.878 8.134a.603.603 0 0 0 .426 1.026Zm6.245-3.602a1.774 1.774 0 1 0 1.773 1.773 1.777 1.777 0 0 0-1.773-1.773Zm0 2.343a.568.568 0 1 1 0-1.136.568.568 0 0 1 0 1.136Zm-5.05-3.759A1.774 1.774 0 1 0 5.497.595 1.774 1.774 0 0 0 5.5 4.142Zm0-2.342a.568.568 0 1 1 0 1.136.568.568 0 0 1 0-1.136Z"/></svg>