<svg xmlns="http://www.w3.org/2000/svg" width="16" height="17"><g fill="#333"><path d="M9.905 6.583a3.85 3.85 0 0 0-.385-.355A.737.737 0 0 0 8.99 6c-.422 0-.764.365-.764.816 0 .2.067.383.178.524a.784.784 0 0 0 .189.174c.072.063.143.126.209.196l.063.068c.792.845.556 2.3-.237 3.147l-3.381 3.609a1.945 1.945 0 0 1-2.873 0l-.063-.068c-.793-.846-.793-2.223 0-3.067l1.493-1.594a.908.908 0 0 0 .315-.695c0-.49-.372-.886-.83-.886a.79.79 0 0 0-.467.153l-.001-.003-.016.016a.86.86 0 0 0-.158.158l-1.553 1.55c-1.459 1.56-1.459 4.11 0 5.667l.063.067a3.597 3.597 0 0 0 5.306 0l3.38-3.61c1.458-1.558 1.581-4.016.124-5.573l-.062-.066Z"/><path d="m14.904 1.158-.064-.063a3.773 3.773 0 0 0-5.316 0L6.138 4.48c-1.462 1.46-1.543 3.569-.08 5.03l.061.061c.067.067.136.13.206.19.05.056.11.105.177.143l.002.001a.723.723 0 0 0 1.011-.94c-.095-.215-.274-.345-.398-.469l-.062-.061c-.794-.793-.493-1.945.301-2.738l3.389-3.383a2.037 2.037 0 0 1 2.877 0l.063.062a2.034 2.034 0 0 1 0 2.876l-1.492 1.49a.823.823 0 0 0 .491 1.488.822.822 0 0 0 .433-.122l.002.004.023-.021a.83.83 0 0 0 .188-.173l1.573-1.45a3.761 3.761 0 0 0 0-5.309Z"/></g></svg>